<?xml version="1.0" encoding="UTF-8"?>
<!DOCTYPE svg PUBLIC "-//W3C//DTD SVG 1.1//EN" "http://www.w3.org/Graphics/SVG/1.1/DTD/svg11.dtd">
<svg version="1.2" width="149.24mm" height="99.82mm" viewBox="4809 9889 14924 9982" preserveAspectRatio="xMidYMid" fill-rule="evenodd" stroke-width="28.222" stroke-linejoin="round" xmlns="http://www.w3.org/2000/svg" xmlns:ooo="http://xml.openoffice.org/svg/export" xmlns:xlink="http://www.w3.org/1999/xlink" xmlns:presentation="http://sun.com/xmlns/staroffice/presentation" xmlns:smil="http://www.w3.org/2001/SMIL20/" xmlns:anim="urn:oasis:names:tc:opendocument:xmlns:animation:1.0" xmlns:svg="urn:oasis:names:tc:opendocument:xmlns:svg-compatible:1.0" xml:space="preserve">
 <defs class="EmbeddedBulletChars">
  <g id="bullet-char-template-57356" transform="scale(0.00048828125,-0.00048828125)">
   <path d="M 580,1141 L 1163,571 580,0 -4,571 580,1141 Z"/>
  </g>
  <g id="bullet-char-template-57354" transform="scale(0.00048828125,-0.00048828125)">
   <path d="M 8,1128 L 1137,1128 1137,0 8,0 8,1128 Z"/>
  </g>
  <g id="bullet-char-template-10146" transform="scale(0.00048828125,-0.00048828125)">
   <path d="M 174,0 L 602,739 174,1481 1456,739 174,0 Z M 1358,739 L 309,1346 659,739 1358,739 Z"/>
  </g>
  <g id="bullet-char-template-10132" transform="scale(0.00048828125,-0.00048828125)">
   <path d="M 2015,739 L 1276,0 717,0 1260,543 174,543 174,936 1260,936 717,1481 1274,1481 2015,739 Z"/>
  </g>
  <g id="bullet-char-template-10007" transform="scale(0.00048828125,-0.00048828125)">
   <path d="M 0,-2 C -7,14 -16,27 -25,37 L 356,567 C 262,823 215,952 215,954 215,979 228,992 255,992 264,992 276,990 289,987 310,991 331,999 354,1012 L 381,999 492,748 772,1049 836,1024 860,1049 C 881,1039 901,1025 922,1006 886,937 835,863 770,784 769,783 710,716 594,584 L 774,223 C 774,196 753,168 711,139 L 727,119 C 717,90 699,76 672,76 641,76 570,178 457,381 L 164,-76 C 142,-110 111,-127 72,-127 30,-127 9,-110 8,-76 1,-67 -2,-52 -2,-32 -2,-23 -1,-13 0,-2 Z"/>
  </g>
  <g id="bullet-char-template-10004" transform="scale(0.00048828125,-0.00048828125)">
   <path d="M 285,-33 C 182,-33 111,30 74,156 52,228 41,333 41,471 41,549 55,616 82,672 116,743 169,778 240,778 293,778 328,747 346,684 L 369,508 C 377,444 397,411 428,410 L 1163,1116 C 1174,1127 1196,1133 1229,1133 1271,1133 1292,1118 1292,1087 L 1292,965 C 1292,929 1282,901 1262,881 L 442,47 C 390,-6 338,-33 285,-33 Z"/>
  </g>
  <g id="bullet-char-template-9679" transform="scale(0.00048828125,-0.00048828125)">
   <path d="M 813,0 C 632,0 489,54 383,161 276,268 223,411 223,592 223,773 276,916 383,1023 489,1130 632,1184 813,1184 992,1184 1136,1130 1245,1023 1353,916 1407,772 1407,592 1407,412 1353,268 1245,161 1136,54 992,0 813,0 Z"/>
  </g>
  <g id="bullet-char-template-8226" transform="scale(0.00048828125,-0.00048828125)">
   <path d="M 346,457 C 273,457 209,483 155,535 101,586 74,649 74,723 74,796 101,859 155,911 209,963 273,989 346,989 419,989 480,963 531,910 582,859 608,796 608,723 608,648 583,586 532,535 482,483 420,457 346,457 Z"/>
  </g>
  <g id="bullet-char-template-8211" transform="scale(0.00048828125,-0.00048828125)">
   <path d="M -4,459 L 1135,459 1135,606 -4,606 -4,459 Z"/>
  </g>
  <g id="bullet-char-template-61548" transform="scale(0.00048828125,-0.00048828125)">
   <path d="M 173,740 C 173,903 231,1043 346,1159 462,1274 601,1332 765,1332 928,1332 1067,1274 1183,1159 1299,1043 1357,903 1357,740 1357,577 1299,437 1183,322 1067,206 928,148 765,148 601,148 462,206 346,322 231,437 173,577 173,740 Z"/>
  </g>
 </defs>
 <g class="Page">
  <g class="com.sun.star.drawing.CustomShape">
   <g id="id3">
    <rect class="BoundingBox" stroke="none" fill="none" x="11159" y="13699" width="2544" height="2362"/>
    <path fill="rgb(255,255,255)" stroke="none" d="M 13701,14880 C 13701,15087 13642,15290 13531,15469 13419,15649 13259,15797 13066,15901 12873,16004 12654,16059 12431,16059 12207,16059 11988,16004 11795,15901 11602,15797 11442,15649 11330,15469 11219,15290 11160,15087 11160,14880 11160,14672 11219,14469 11330,14290 11442,14110 11602,13962 11795,13858 11988,13755 12207,13700 12430,13700 12654,13700 12873,13755 13066,13858 13259,13962 13419,14110 13531,14290 13642,14469 13701,14672 13701,14879 L 13701,14880 Z"/>
    <path fill="none" stroke="rgb(0,0,0)" d="M 13701,14880 C 13701,15087 13642,15290 13531,15469 13419,15649 13259,15797 13066,15901 12873,16004 12654,16059 12431,16059 12207,16059 11988,16004 11795,15901 11602,15797 11442,15649 11330,15469 11219,15290 11160,15087 11160,14880 11160,14672 11219,14469 11330,14290 11442,14110 11602,13962 11795,13858 11988,13755 12207,13700 12430,13700 12654,13700 12873,13755 13066,13858 13259,13962 13419,14110 13531,14290 13642,14469 13701,14672 13701,14879 L 13701,14880 Z"/>
   </g>
  </g>
  <g class="com.sun.star.drawing.CustomShape">
   <g id="id4">
    <rect class="BoundingBox" stroke="none" fill="none" x="11159" y="9889" width="2544" height="2362"/>
    <path fill="rgb(255,255,255)" stroke="none" d="M 13701,11070 C 13701,11277 13642,11480 13531,11659 13419,11839 13259,11987 13066,12091 12873,12194 12654,12249 12431,12249 12207,12249 11988,12194 11795,12091 11602,11987 11442,11839 11330,11659 11219,11480 11160,11277 11160,11070 11160,10862 11219,10659 11330,10480 11442,10300 11602,10152 11795,10048 11988,9945 12207,9890 12430,9890 12654,9890 12873,9945 13066,10048 13259,10152 13419,10300 13531,10480 13642,10659 13701,10862 13701,11069 L 13701,11070 Z"/>
    <path fill="none" stroke="rgb(0,0,0)" d="M 13701,11070 C 13701,11277 13642,11480 13531,11659 13419,11839 13259,11987 13066,12091 12873,12194 12654,12249 12431,12249 12207,12249 11988,12194 11795,12091 11602,11987 11442,11839 11330,11659 11219,11480 11160,11277 11160,11070 11160,10862 11219,10659 11330,10480 11442,10300 11602,10152 11795,10048 11988,9945 12207,9890 12430,9890 12654,9890 12873,9945 13066,10048 13259,10152 13419,10300 13531,10480 13642,10659 13701,10862 13701,11069 L 13701,11070 Z"/>
   </g>
  </g>
  <g class="com.sun.star.drawing.CustomShape">
   <g id="id5">
    <rect class="BoundingBox" stroke="none" fill="none" x="11159" y="17509" width="2544" height="2362"/>
    <path fill="rgb(255,255,255)" stroke="none" d="M 13701,18690 C 13701,18897 13642,19100 13531,19279 13419,19459 13259,19607 13066,19711 12873,19814 12654,19869 12431,19869 12207,19869 11988,19814 11795,19711 11602,19607 11442,19459 11330,19279 11219,19100 11160,18897 11160,18690 11160,18482 11219,18279 11330,18100 11442,17920 11602,17772 11795,17668 11988,17565 12207,17510 12430,17510 12654,17510 12873,17565 13066,17668 13259,17772 13419,17920 13531,18100 13642,18279 13701,18482 13701,18690 L 13701,18690 Z"/>
    <path fill="none" stroke="rgb(0,0,0)" d="M 13701,18690 C 13701,18897 13642,19100 13531,19279 13419,19459 13259,19607 13066,19711 12873,19814 12654,19869 12431,19869 12207,19869 11988,19814 11795,19711 11602,19607 11442,19459 11330,19279 11219,19100 11160,18897 11160,18690 11160,18482 11219,18279 11330,18100 11442,17920 11602,17772 11795,17668 11988,17565 12207,17510 12430,17510 12654,17510 12873,17565 13066,17668 13259,17772 13419,17920 13531,18100 13642,18279 13701,18482 13701,18690 Z"/>
   </g>
  </g>
  <g class="com.sun.star.drawing.CustomShape">
   <g id="id6">
    <rect class="BoundingBox" stroke="none" fill="none" x="6079" y="9889" width="2544" height="2362"/>
    <path fill="rgb(255,255,255)" stroke="none" d="M 8621,11070 C 8621,11277 8562,11480 8451,11659 8339,11839 8179,11987 7986,12091 7793,12194 7574,12249 7351,12249 7127,12249 6908,12194 6715,12091 6522,11987 6362,11839 6250,11659 6139,11480 6080,11277 6080,11070 6080,10862 6139,10659 6250,10480 6362,10300 6522,10152 6715,10048 6908,9945 7127,9890 7350,9890 7574,9890 7793,9945 7986,10048 8179,10152 8339,10300 8451,10480 8562,10659 8621,10862 8621,11069 L 8621,11070 Z"/>
    <path fill="none" stroke="rgb(0,0,0)" d="M 8621,11070 C 8621,11277 8562,11480 8451,11659 8339,11839 8179,11987 7986,12091 7793,12194 7574,12249 7351,12249 7127,12249 6908,12194 6715,12091 6522,11987 6362,11839 6250,11659 6139,11480 6080,11277 6080,11070 6080,10862 6139,10659 6250,10480 6362,10300 6522,10152 6715,10048 6908,9945 7127,9890 7350,9890 7574,9890 7793,9945 7986,10048 8179,10152 8339,10300 8451,10480 8562,10659 8621,10862 8621,11069 L 8621,11070 Z"/>
   </g>
  </g>
  <g class="com.sun.star.drawing.CustomShape">
   <g id="id7">
    <rect class="BoundingBox" stroke="none" fill="none" x="6079" y="13699" width="2544" height="2362"/>
    <path fill="rgb(255,255,255)" stroke="none" d="M 8621,14880 C 8621,15087 8562,15290 8451,15469 8339,15649 8179,15797 7986,15901 7793,16004 7574,16059 7351,16059 7127,16059 6908,16004 6715,15901 6522,15797 6362,15649 6250,15469 6139,15290 6080,15087 6080,14880 6080,14672 6139,14469 6250,14290 6362,14110 6522,13962 6715,13858 6908,13755 7127,13700 7350,13700 7574,13700 7793,13755 7986,13858 8179,13962 8339,14110 8451,14290 8562,14469 8621,14672 8621,14879 L 8621,14880 Z"/>
    <path fill="none" stroke="rgb(0,0,0)" d="M 8621,14880 C 8621,15087 8562,15290 8451,15469 8339,15649 8179,15797 7986,15901 7793,16004 7574,16059 7351,16059 7127,16059 6908,16004 6715,15901 6522,15797 6362,15649 6250,15469 6139,15290 6080,15087 6080,14880 6080,14672 6139,14469 6250,14290 6362,14110 6522,13962 6715,13858 6908,13755 7127,13700 7350,13700 7574,13700 7793,13755 7986,13858 8179,13962 8339,14110 8451,14290 8562,14469 8621,14672 8621,14879 L 8621,14880 Z"/>
   </g>
  </g>
  <g class="com.sun.star.drawing.CustomShape">
   <g id="id8">
    <rect class="BoundingBox" stroke="none" fill="none" x="6079" y="17509" width="2544" height="2362"/>
    <path fill="rgb(255,255,255)" stroke="none" d="M 8621,18690 C 8621,18897 8562,19100 8451,19279 8339,19459 8179,19607 7986,19711 7793,19814 7574,19869 7351,19869 7127,19869 6908,19814 6715,19711 6522,19607 6362,19459 6250,19279 6139,19100 6080,18897 6080,18690 6080,18482 6139,18279 6250,18100 6362,17920 6522,17772 6715,17668 6908,17565 7127,17510 7350,17510 7574,17510 7793,17565 7986,17668 8179,17772 8339,17920 8451,18100 8562,18279 8621,18482 8621,18690 L 8621,18690 Z"/>
    <path fill="none" stroke="rgb(0,0,0)" d="M 8621,18690 C 8621,18897 8562,19100 8451,19279 8339,19459 8179,19607 7986,19711 7793,19814 7574,19869 7351,19869 7127,19869 6908,19814 6715,19711 6522,19607 6362,19459 6250,19279 6139,19100 6080,18897 6080,18690 6080,18482 6139,18279 6250,18100 6362,17920 6522,17772 6715,17668 6908,17565 7127,17510 7350,17510 7574,17510 7793,17565 7986,17668 8179,17772 8339,17920 8451,18100 8562,18279 8621,18482 8621,18690 Z"/>
   </g>
  </g>
  <g class="com.sun.star.drawing.CustomShape">
   <g id="id9">
    <rect class="BoundingBox" stroke="none" fill="none" x="16239" y="9889" width="2544" height="2362"/>
    <path fill="rgb(255,255,255)" stroke="none" d="M 18781,11070 C 18781,11277 18722,11480 18611,11659 18499,11839 18339,11987 18146,12091 17953,12194 17734,12249 17511,12249 17287,12249 17068,12194 16875,12091 16682,11987 16522,11839 16410,11659 16299,11480 16240,11277 16240,11070 16240,10862 16299,10659 16410,10480 16522,10300 16682,10152 16875,10048 17068,9945 17287,9890 17511,9890 17734,9890 17953,9945 18146,10048 18339,10152 18499,10300 18611,10480 18722,10659 18781,10862 18781,11069 L 18781,11070 Z"/>
    <path fill="none" stroke="rgb(0,0,0)" d="M 18781,11070 C 18781,11277 18722,11480 18611,11659 18499,11839 18339,11987 18146,12091 17953,12194 17734,12249 17511,12249 17287,12249 17068,12194 16875,12091 16682,11987 16522,11839 16410,11659 16299,11480 16240,11277 16240,11070 16240,10862 16299,10659 16410,10480 16522,10300 16682,10152 16875,10048 17068,9945 17287,9890 17511,9890 17734,9890 17953,9945 18146,10048 18339,10152 18499,10300 18611,10480 18722,10659 18781,10862 18781,11069 L 18781,11070 Z"/>
   </g>
  </g>
  <g class="com.sun.star.drawing.CustomShape">
   <g id="id10">
    <rect class="BoundingBox" stroke="none" fill="none" x="16239" y="13699" width="2544" height="2362"/>
    <path fill="rgb(255,255,255)" stroke="none" d="M 18781,14880 C 18781,15087 18722,15290 18611,15469 18499,15649 18339,15797 18146,15901 17953,16004 17734,16059 17511,16059 17287,16059 17068,16004 16875,15901 16682,15797 16522,15649 16410,15469 16299,15290 16240,15087 16240,14880 16240,14672 16299,14469 16410,14290 16522,14110 16682,13962 16875,13858 17068,13755 17287,13700 17511,13700 17734,13700 17953,13755 18146,13858 18339,13962 18499,14110 18611,14290 18722,14469 18781,14672 18781,14879 L 18781,14880 Z"/>
    <path fill="none" stroke="rgb(0,0,0)" d="M 18781,14880 C 18781,15087 18722,15290 18611,15469 18499,15649 18339,15797 18146,15901 17953,16004 17734,16059 17511,16059 17287,16059 17068,16004 16875,15901 16682,15797 16522,15649 16410,15469 16299,15290 16240,15087 16240,14880 16240,14672 16299,14469 16410,14290 16522,14110 16682,13962 16875,13858 17068,13755 17287,13700 17511,13700 17734,13700 17953,13755 18146,13858 18339,13962 18499,14110 18611,14290 18722,14469 18781,14672 18781,14879 L 18781,14880 Z"/>
   </g>
  </g>
  <g class="com.sun.star.drawing.CustomShape">
   <g id="id11">
    <rect class="BoundingBox" stroke="none" fill="none" x="16239" y="17509" width="2544" height="2362"/>
    <path fill="rgb(255,255,255)" stroke="none" d="M 18781,18690 C 18781,18897 18722,19100 18611,19279 18499,19459 18339,19607 18146,19711 17953,19814 17734,19869 17511,19869 17287,19869 17068,19814 16875,19711 16682,19607 16522,19459 16410,19279 16299,19100 16240,18897 16240,18690 16240,18482 16299,18279 16410,18100 16522,17920 16682,17772 16875,17668 17068,17565 17287,17510 17511,17510 17734,17510 17953,17565 18146,17668 18339,17772 18499,17920 18611,18100 18722,18279 18781,18482 18781,18690 L 18781,18690 Z"/>
    <path fill="none" stroke="rgb(0,0,0)" d="M 18781,18690 C 18781,18897 18722,19100 18611,19279 18499,19459 18339,19607 18146,19711 17953,19814 17734,19869 17511,19869 17287,19869 17068,19814 16875,19711 16682,19607 16522,19459 16410,19279 16299,19100 16240,18897 16240,18690 16240,18482 16299,18279 16410,18100 16522,17920 16682,17772 16875,17668 17068,17565 17287,17510 17511,17510 17734,17510 17953,17565 18146,17668 18339,17772 18499,17920 18611,18100 18722,18279 18781,18482 18781,18690 Z"/>
   </g>
  </g>
  <g class="com.sun.star.drawing.LineShape">
   <g id="id12">
    <rect class="BoundingBox" stroke="none" fill="none" x="4809" y="11010" width="1272" height="301"/>
    <path fill="none" stroke="rgb(52,101,164)" d="M 4810,11160 L 5800,11160"/>
    <path fill="rgb(52,101,164)" stroke="none" d="M 5780,11010 L 6080,11160 5780,11310 5780,11010 Z"/>
   </g>
  </g>
  <g class="com.sun.star.drawing.LineShape">
   <g id="id13">
    <rect class="BoundingBox" stroke="none" fill="none" x="4809" y="14820" width="1272" height="301"/>
    <path fill="none" stroke="rgb(52,101,164)" d="M 4810,14970 L 5800,14970"/>
    <path fill="rgb(52,101,164)" stroke="none" d="M 5780,14820 L 6080,14970 5780,15120 5780,14820 Z"/>
   </g>
  </g>
  <g class="com.sun.star.drawing.LineShape">
   <g id="id14">
    <rect class="BoundingBox" stroke="none" fill="none" x="4809" y="18630" width="1272" height="301"/>
    <path fill="none" stroke="rgb(52,101,164)" d="M 4810,18780 L 5800,18780"/>
    <path fill="rgb(52,101,164)" stroke="none" d="M 5780,18630 L 6080,18780 5780,18930 5780,18630 Z"/>
   </g>
  </g>
  <g class="com.sun.star.drawing.LineShape">
   <g id="id15">
    <rect class="BoundingBox" stroke="none" fill="none" x="8619" y="11010" width="2542" height="301"/>
    <path fill="none" stroke="rgb(52,101,164)" d="M 8620,11160 L 10880,11160"/>
    <path fill="rgb(52,101,164)" stroke="none" d="M 10860,11010 L 11160,11160 10860,11310 10860,11010 Z"/>
   </g>
  </g>
  <g class="com.sun.star.drawing.LineShape">
   <g id="id16">
    <rect class="BoundingBox" stroke="none" fill="none" x="8619" y="11159" width="2542" height="3494"/>
    <path fill="none" stroke="rgb(52,101,164)" d="M 8620,11160 L 10995,14426"/>
    <path fill="rgb(52,101,164)" stroke="none" d="M 11105,14321 L 11160,14652 10862,14498 11105,14321 Z"/>
   </g>
  </g>
  <g class="com.sun.star.drawing.LineShape">
   <g id="id17">
    <rect class="BoundingBox" stroke="none" fill="none" x="8619" y="11159" width="2581" height="6987"/>
    <path fill="none" stroke="rgb(52,101,164)" d="M 8620,11160 L 11064,17882"/>
    <path fill="rgb(52,101,164)" stroke="none" d="M 11198,17812 L 11160,18145 10917,17914 11198,17812 Z"/>
   </g>
  </g>
  <g class="com.sun.star.drawing.LineShape">
   <g id="id18">
    <rect class="BoundingBox" stroke="none" fill="none" x="8619" y="11477" width="2542" height="3495"/>
    <path fill="none" stroke="rgb(52,101,164)" d="M 8620,14970 L 10995,11703"/>
    <path fill="rgb(52,101,164)" stroke="none" d="M 10862,11631 L 11160,11477 11105,11808 10862,11631 Z"/>
   </g>
  </g>
  <g class="com.sun.star.drawing.LineShape">
   <g id="id19">
    <rect class="BoundingBox" stroke="none" fill="none" x="8619" y="14820" width="2542" height="301"/>
    <path fill="none" stroke="rgb(52,101,164)" d="M 8620,14970 L 10880,14970"/>
    <path fill="rgb(52,101,164)" stroke="none" d="M 10860,14820 L 11160,14970 10860,15120 10860,14820 Z"/>
   </g>
  </g>
  <g class="com.sun.star.drawing.LineShape">
   <g id="id20">
    <rect class="BoundingBox" stroke="none" fill="none" x="8619" y="14969" width="2542" height="3494"/>
    <path fill="none" stroke="rgb(52,101,164)" d="M 8620,14970 L 10995,18236"/>
    <path fill="rgb(52,101,164)" stroke="none" d="M 11105,18131 L 11160,18462 10862,18308 11105,18131 Z"/>
   </g>
  </g>
  <g class="com.sun.star.drawing.LineShape">
   <g id="id21">
    <rect class="BoundingBox" stroke="none" fill="none" x="8619" y="11795" width="2885" height="6987"/>
    <path fill="none" stroke="rgb(52,101,164)" d="M 8620,18780 L 11371,12054"/>
    <path fill="rgb(52,101,164)" stroke="none" d="M 11225,12016 L 11477,11795 11502,12129 11225,12016 Z"/>
   </g>
  </g>
  <g class="com.sun.star.drawing.LineShape">
   <g id="id22">
    <rect class="BoundingBox" stroke="none" fill="none" x="8619" y="15287" width="2542" height="3495"/>
    <path fill="none" stroke="rgb(52,101,164)" d="M 8620,18780 L 10995,15513"/>
    <path fill="rgb(52,101,164)" stroke="none" d="M 10862,15441 L 11160,15287 11105,15618 10862,15441 Z"/>
   </g>
  </g>
  <g class="com.sun.star.drawing.LineShape">
   <g id="id23">
    <rect class="BoundingBox" stroke="none" fill="none" x="8619" y="18630" width="2542" height="301"/>
    <path fill="none" stroke="rgb(52,101,164)" d="M 8620,18780 L 10880,18780"/>
    <path fill="rgb(52,101,164)" stroke="none" d="M 10860,18630 L 11160,18780 10860,18930 10860,18630 Z"/>
   </g>
  </g>
  <g class="com.sun.star.drawing.LineShape">
   <g id="id24">
    <rect class="BoundingBox" stroke="none" fill="none" x="13699" y="11010" width="2542" height="301"/>
    <path fill="none" stroke="rgb(52,101,164)" d="M 13700,11160 L 15960,11160"/>
    <path fill="rgb(52,101,164)" stroke="none" d="M 15940,11010 L 16240,11160 15940,11310 15940,11010 Z"/>
   </g>
  </g>
  <g class="com.sun.star.drawing.LineShape">
   <g id="id25">
    <rect class="BoundingBox" stroke="none" fill="none" x="13699" y="14820" width="2542" height="301"/>
    <path fill="none" stroke="rgb(52,101,164)" d="M 13700,14970 L 15960,14970"/>
    <path fill="rgb(52,101,164)" stroke="none" d="M 15940,14820 L 16240,14970 15940,15120 15940,14820 Z"/>
   </g>
  </g>
  <g class="com.sun.star.drawing.LineShape">
   <g id="id26">
    <rect class="BoundingBox" stroke="none" fill="none" x="13699" y="18630" width="2542" height="301"/>
    <path fill="none" stroke="rgb(52,101,164)" d="M 13700,18780 L 15960,18780"/>
    <path fill="rgb(52,101,164)" stroke="none" d="M 15940,18630 L 16240,18780 15940,18930 15940,18630 Z"/>
   </g>
  </g>
  <g class="com.sun.star.drawing.LineShape">
   <g id="id27">
    <rect class="BoundingBox" stroke="none" fill="none" x="13699" y="11159" width="2542" height="3494"/>
    <path fill="none" stroke="rgb(52,101,164)" d="M 13700,11160 L 16075,14426"/>
    <path fill="rgb(52,101,164)" stroke="none" d="M 16185,14321 L 16240,14652 15942,14498 16185,14321 Z"/>
   </g>
  </g>
  <g class="com.sun.star.drawing.LineShape">
   <g id="id28">
    <rect class="BoundingBox" stroke="none" fill="none" x="13699" y="14969" width="2542" height="3494"/>
    <path fill="none" stroke="rgb(52,101,164)" d="M 13700,14970 L 16075,18236"/>
    <path fill="rgb(52,101,164)" stroke="none" d="M 16185,18131 L 16240,18462 15942,18308 16185,18131 Z"/>
   </g>
  </g>
  <g class="com.sun.star.drawing.LineShape">
   <g id="id29">
    <rect class="BoundingBox" stroke="none" fill="none" x="13699" y="11477" width="2542" height="3495"/>
    <path fill="none" stroke="rgb(52,101,164)" d="M 13700,14970 L 16075,11703"/>
    <path fill="rgb(52,101,164)" stroke="none" d="M 15942,11631 L 16240,11477 16185,11808 15942,11631 Z"/>
   </g>
  </g>
  <g class="com.sun.star.drawing.LineShape">
   <g id="id30">
    <rect class="BoundingBox" stroke="none" fill="none" x="13699" y="11159" width="2879" height="6669"/>
    <path fill="none" stroke="rgb(52,101,164)" d="M 13700,11160 L 16447,17570"/>
    <path fill="rgb(52,101,164)" stroke="none" d="M 16577,17492 L 16557,17827 16301,17610 16577,17492 Z"/>
   </g>
  </g>
  <g class="com.sun.star.drawing.LineShape">
   <g id="id31">
    <rect class="BoundingBox" stroke="none" fill="none" x="13699" y="15287" width="2542" height="3495"/>
    <path fill="none" stroke="rgb(52,101,164)" d="M 13700,18780 L 16075,15513"/>
    <path fill="rgb(52,101,164)" stroke="none" d="M 15942,15441 L 16240,15287 16185,15618 15942,15441 Z"/>
   </g>
  </g>
  <g class="com.sun.star.drawing.LineShape">
   <g id="id32">
    <rect class="BoundingBox" stroke="none" fill="none" x="13699" y="11795" width="2885" height="6987"/>
    <path fill="none" stroke="rgb(52,101,164)" d="M 13700,18780 L 16451,12054"/>
    <path fill="rgb(52,101,164)" stroke="none" d="M 16305,12016 L 16557,11795 16582,12129 16305,12016 Z"/>
   </g>
  </g>
  <g class="com.sun.star.drawing.LineShape">
   <g id="id33">
    <rect class="BoundingBox" stroke="none" fill="none" x="18779" y="11010" width="954" height="301"/>
    <path fill="none" stroke="rgb(52,101,164)" d="M 18780,11160 L 19452,11160"/>
    <path fill="rgb(52,101,164)" stroke="none" d="M 19432,11010 L 19732,11160 19432,11310 19432,11010 Z"/>
   </g>
  </g>
  <g class="com.sun.star.drawing.LineShape">
   <g id="id34">
    <rect class="BoundingBox" stroke="none" fill="none" x="18779" y="14820" width="954" height="301"/>
    <path fill="none" stroke="rgb(52,101,164)" d="M 18780,14970 L 19452,14970"/>
    <path fill="rgb(52,101,164)" stroke="none" d="M 19432,14820 L 19732,14970 19432,15120 19432,14820 Z"/>
   </g>
  </g>
  <g class="com.sun.star.drawing.LineShape">
   <g id="id35">
    <rect class="BoundingBox" stroke="none" fill="none" x="18779" y="18630" width="954" height="301"/>
    <path fill="none" stroke="rgb(52,101,164)" d="M 18780,18780 L 19452,18780"/>
    <path fill="rgb(52,101,164)" stroke="none" d="M 19432,18630 L 19732,18780 19432,18930 19432,18630 Z"/>
   </g>
  </g>
 </g>
</svg>